<svg x="0" y="0" width="48" height="48" version="1.1" xmlns="http://www.w3.org/2000/svg" xmlns:xlink="http://www.w3.org/1999/xlink"><defs><linearGradient x1="11.68966" y1="16.1563" x2="49.63284" y2="45.1662" gradientUnits="userSpaceOnUse" id="color-1"><stop offset="0" stop-color="#000000" stop-opacity="0.7"></stop><stop offset="1" stop-color="#000000" stop-opacity="0"></stop></linearGradient><filter id="dropshadow"><feColorMatrix type="matrix" values="0 0 0 0 .05  0 0 0 0 .15  0 0 0 0 .1  0 0 0 .8 0"></feColorMatrix> <feOffset dx="0" dy="1"></feOffset> <feGaussianBlur stdDeviation="1"></feGaussianBlur> <feComposite in="SourceGraphic"></feComposite></filter></defs><g fill="none" stroke="none" stroke-width="none" stroke-linecap="butt" stroke-linejoin="miter" stroke-miterlimit="none" stroke-dasharray="" stroke-dashoffset="0" font-family="none" font-weight="normal" font-size="none" text-anchor="start" mix-blend-mode="normal"><g id="Capa_1" fill="#000000" stroke="none" stroke-width="1" stroke-miterlimit="4" font-family="&quot;Open Sans&quot;, sans-serif" font-size="14"><g></g><g></g><g></g><g></g><g></g><g></g><g></g><g></g><g></g><g></g><g></g><g></g><g></g><g></g><g></g></g><path d="M5,45c-1.10457,0 -2,-0.89543 -2,-2l0,-38c0,-1.10457 0.89543,-2 2,-2l38,0c1.10457,0 2,0.89543 2,2l0,38c0,1.10457 -0.89543,2 -2,2z" fill="#f44336" stroke-width="1" stroke-miterlimit="10" font-family="sans-serif" font-size="12" filter="url(#dropshadow)"></path><path d="M28.68123,16.60896l13.3225,13.3225c0.00021,0.00021 0.00041,0.00041 0.00062,0.00063c0,0 2.99564,3.00176 2.99564,3.00176l0,10.06615c0,1.10457 -0.89543,2 -2,2l-13.94622,0c-0.02899,-0.02211 -0.05644,-0.04613 -0.08218,-0.07187l-13.3225,-13.3225c-0.14705,-0.14705 -0.23801,-0.3502 -0.23801,-0.57456l0.81257,0.81257l0.00001,0l-0.81258,-0.81258c0,-0.72859 0.09152,-1.43629 0.26312,-2.11216l-3.74717,-3.7552c-0.31651,-0.31725 -0.31651,-0.83081 0,-1.14797l7.39104,-7.40613c0.15237,-0.15278 0.35936,-0.23858 0.57515,-0.23858l0.00001,0.00001c0.21557,0 0.42212,0.08556 0.57451,0.23795l0.00388,0.00388l-0.00325,-0.00326c-0.00042,-0.00042 -0.00063,-0.00063 -0.00063,-0.00063c0,0 0.00021,0.00021 0.00063,0.00063c0.38299,0.38299 0.84854,0.84854 1.37321,1.37321c0,0 1.58311,-1.58758 1.58311,-1.58758c0.15228,-0.15295 0.35936,-0.23891 0.57531,-0.23891c0.21557,0 0.4223,0.08573 0.57469,0.23812l0.00285,0.00285l-0.00222,-0.00223c0.4416,0.4416 0.98097,0.98097 1.58675,1.58675l1.36948,-1.37221c0.15245,-0.15278 0.35936,-0.23858 0.57515,-0.23858l0.00001,0.00001c0.2154,0 0.42213,0.08556 0.57452,0.23795l0.00062,0.00062c-0.00021,-0.00021 -0.00041,-0.00041 -0.00062,-0.00063z" fill="url(#color-1)" stroke-width="1" stroke-miterlimit="10" font-family="sans-serif" font-size="12"></path><path d="M36.0729,25.16378l-3.74742,3.75537c0.16737,0.65904 0.25873,1.34801 0.2632,2.05745c0.00124,0.01807 0.00174,0.03606 0.00174,0.05446c0,0.44873 -0.36376,0.81257 -0.81257,0.81257c-0.00041,0.00008 -0.00108,0.00008 -0.00158,0l-15.55262,0c-0.44873,0 -0.81257,-0.36384 -0.81257,-0.81257c0,-0.72859 0.09152,-1.4363 0.26312,-2.11216l-3.74717,-3.75521c-0.31651,-0.31725 -0.31651,-0.83081 0,-1.14797l7.39104,-7.40613c0.15237,-0.15278 0.35936,-0.23858 0.57515,-0.23858c0.21587,0 0.4227,0.0858 0.57515,0.23858l1.37188,1.37454l1.58443,-1.58891c0.15228,-0.15295 0.35936,-0.23891 0.57531,-0.23891c0.21587,0 0.42286,0.08597 0.57531,0.23875l1.58452,1.58899l1.37172,-1.37445c0.15245,-0.15278 0.35936,-0.23858 0.57515,-0.23858c0.2157,0 0.4227,0.0858 0.57515,0.23858l7.39104,7.40613c0.31659,0.31717 0.31659,0.83072 0,1.14806z M17.42187,24.71638l0.37694,0.3781c1.56454,-1.63359 3.76607,-2.65225 6.20112,-2.65225c2.43505,0 4.63675,1.01865 6.20129,2.65225l0.37694,-0.3781l-6.57814,-6.59671z M30.91663,30.21833c-0.40388,-3.45827 -3.35174,-6.15105 -6.91662,-6.15105c-3.56487,0 -6.51282,2.69278 -6.91662,6.15105z M16.2947,27.23988c0.14681,-0.29727 0.31012,-0.58501 0.48918,-0.86181l-1.08481,-1.08796c-0.31617,-0.31709 -0.31617,-0.83039 0,-1.14748l4.99354,-5.00772l-0.79939,-0.80105l-6.24307,6.25575z M34.34994,24.58962l-6.24315,-6.25583l-0.7993,0.80096l4.99362,5.0078c0.31617,0.31709 0.31617,0.83039 0,1.14748l-1.08472,1.08787c0.17906,0.27671 0.3422,0.56445 0.48902,0.86173z" fill="#ffffff" stroke="none" stroke-width="0" stroke-miterlimit="4" font-family="&quot;Open Sans&quot;, sans-serif" font-size="14"></path></g></svg>